<?xml version="1.0" standalone="no"?>
<!DOCTYPE svg PUBLIC "-//W3C//DTD SVG 20010904//EN"
 "http://www.w3.org/TR/2001/REC-SVG-20010904/DTD/svg10.dtd">
<svg version="1.0" xmlns="http://www.w3.org/2000/svg"
 width="260.000000pt" height="260.000000pt" viewBox="0 0 260.000000 260.000000"
 preserveAspectRatio="xMidYMid meet">
<metadata>
Created by potrace 1.14, written by Peter Selinger 2001-2017
</metadata>
<g transform="translate(0.000000,260.000000) scale(0.100000,-0.100000)"
fill="#000000" stroke="none">
<path d="M819 2259 c-17 -4 -37 -13 -45 -20 -11 -12 -231 -634 -384 -1089 -22
-63 -82 -239 -135 -390 -52 -151 -95 -278 -95 -282 0 -5 28 -7 63 -6 l62 3
105 315 c57 173 105 317 107 319 2 3 104 5 228 5 153 0 225 3 225 10 0 6 2 81
4 166 l4 155 -75 230 c-41 127 -81 248 -88 270 -7 22 -10 45 -5 50 4 6 20 47
35 93 l28 83 75 -3 74 -3 43 -139 c24 -76 46 -145 50 -153 4 -11 17 3 45 45
l39 61 -25 83 c-15 46 -31 100 -38 121 -22 69 -39 78 -159 80 -59 1 -120 -1
-138 -4z m-4 -731 c47 -141 85 -260 85 -265 0 -9 -336 -10 -346 -1 -3 4 33
124 81 268 48 143 89 259 91 258 2 -2 42 -119 89 -260z"/>
<path d="M2008 2194 c-505 -79 -842 -537 -783 -1064 4 -35 11 -74 16 -87 5
-13 6 -23 4 -23 -8 0 44 -137 74 -192 53 -101 81 -139 175 -231 210 -205 553
-306 842 -247 61 13 103 29 75 30 -25 0 -183 81 -258 131 -205 138 -329 318
-380 553 -16 71 -6 396 12 426 2 4 6 17 8 31 11 56 70 190 116 259 99 151 247
274 441 367 54 26 55 27 26 34 -90 24 -259 30 -368 13z"/>
</g>
</svg>
