<svg width="51" height="38" viewBox="0 0 51 38" fill="none" xmlns="http://www.w3.org/2000/svg">
<path fill-rule="evenodd" clip-rule="evenodd" d="M2.39844 31.7345C5.42066 22.9567 11.5051 5.30784 11.6651 4.93451C11.8651 4.46784 12.1318 4.20117 12.7318 4.20117H15.9318C16.3984 4.20117 16.7984 4.40117 16.9984 4.93451C17.1584 5.36117 18.5762 9.95673 19.2651 12.2012L17.8651 13.4678L16.5984 9.46784L15.3984 5.60117H13.1318L12.6318 7.03451L12.0651 8.60117L15.2651 18.4012L16.5318 22.2012L15.2651 23.6678L14.6651 21.8678H7.65508L4.39844 31.7345H2.39844ZM13.9318 19.6681L11.1318 11.3348L8.38125 19.6681H13.9318Z" fill="white"/>
<path d="M37.8371 7.43515L43.3705 4.99013L37.4978 3.53852C26.5729 0.838117 16.6657 8.58127 16.6658 19.8685C16.6658 31.3822 28.017 38.1871 37.9132 35.2549L43.947 33.4671L38.028 31.3296C34.3854 30.0141 29.123 26.8954 29.123 19.8685C29.123 16.1597 30.2798 13.5628 31.8709 11.6614C33.497 9.71821 35.6706 8.39247 37.8371 7.43515Z" fill="white" stroke="#181821" stroke-width="4.13333"/>
</svg>
