<svg width="34" height="34" viewBox="0 0 34 34" fill="none" xmlns="http://www.w3.org/2000/svg">
<path d="M2.17343 23.139C2.01942 23.5998 1.19795 23.5292 1.39307 22.9439L8.71686 1.74329C8.7712 1.586 8.9193 1.48047 9.08572 1.48047H11.6436C11.8139 1.48047 11.9627 1.58544 12.014 1.74779C14.3881 9.26188 18.4299 23.2894 19.5096 26.0658L14.4662 24.7C13.9465 23.0105 10.3451 12.5489 8.39561 6.52977C8.27902 6.16978 7.76843 6.16772 7.64996 6.52709L2.17343 23.139Z" fill="#181820" stroke="white" stroke-linecap="square"/>
<path d="M8.5 3L4 16H12L8.5 3Z" fill="white"/>
<rect y="23" width="4" height="2" fill="#181821"/>
<path d="M8 6L6 14H10L8 6Z" fill="#181821"/>
<path d="M13.1315 20.8363C13.067 17.1424 14.0296 14.1376 16.0192 11.822C17.9859 9.50673 20.8049 8.31708 24.476 8.253C26.4598 8.21837 28.2347 8.63217 29.8008 9.49438C30.1236 9.69403 30.4104 9.79166 30.6612 9.78728C31.026 9.78091 31.2485 9.45771 31.3286 8.81766C31.371 8.63445 31.472 8.54145 31.6316 8.53866C31.814 8.53548 31.9064 8.60229 31.9088 8.7391C31.9144 9.05833 31.9105 9.49177 31.8973 10.0394L31.9313 11.989L31.9665 14.007C31.9985 14.531 32.0179 14.9869 32.0246 15.3745C32.0282 15.5797 31.9388 15.6839 31.7564 15.6871C31.6196 15.6895 31.5262 15.5657 31.4762 15.3156C31.0963 13.1554 30.4188 11.582 29.4436 10.5954C28.2128 9.33963 26.5599 8.72983 24.485 8.76605C23.2537 8.78754 22.2447 9.13588 21.4582 9.81107C19.8643 11.2759 19.1197 15.0067 19.2244 21.0036C19.2933 24.9484 19.7313 27.8261 20.5384 29.6367C21.3683 31.4469 22.8663 32.3331 25.0325 32.2953C28.7265 32.2309 30.8366 30.2895 31.363 26.4712C31.4246 26.0824 31.5113 25.8185 31.6229 25.6797C31.7573 25.5405 31.9613 25.4686 32.235 25.4638C32.7138 25.4554 32.957 25.6679 32.9646 26.1011C32.9725 26.5571 32.8461 27.1524 32.5852 27.8868C32.0418 29.4245 31.0706 30.6275 29.6716 31.4959C28.2726 32.3642 26.5242 32.8167 24.4264 32.8533C20.8693 32.9154 18.115 31.9257 16.1634 29.8841C14.2114 27.8198 13.2008 24.8038 13.1315 20.8363Z" fill="white"/>
<path d="M16.0192 11.822L16.7777 12.4737L16.7813 12.4694L16.0192 11.822ZM29.8008 9.49438L30.3268 8.64389L30.3052 8.63058L30.2831 8.61837L29.8008 9.49438ZM31.3286 8.81766L30.3543 8.59209L30.3427 8.64234L30.3363 8.69353L31.3286 8.81766ZM31.8973 10.0394L30.8976 10.0152L30.8971 10.036L30.8974 10.0569L31.8973 10.0394ZM31.9665 14.007L30.9667 14.0244L30.9671 14.0461L30.9684 14.0678L31.9665 14.007ZM31.4762 15.3156L30.4913 15.4888L30.4933 15.5003L30.4956 15.5117L31.4762 15.3156ZM29.4436 10.5954L28.7294 11.2954L28.7324 11.2984L29.4436 10.5954ZM21.4582 9.81107L20.8069 9.0523L20.794 9.06332L20.7815 9.07477L21.4582 9.81107ZM20.5384 29.6367L19.625 30.0439L19.6293 30.0534L20.5384 29.6367ZM31.363 26.4712L30.3753 26.3146L30.3737 26.3246L30.3724 26.3346L31.363 26.4712ZM31.6229 25.6797L30.9035 24.9851L30.872 25.0177L30.8436 25.0531L31.6229 25.6797ZM32.5852 27.8868L31.6429 27.5521L31.6423 27.5536L32.5852 27.8868ZM29.6716 31.4959L29.1442 30.6462L29.6716 31.4959ZM16.1634 29.8841L15.4368 30.5712L15.4405 30.5751L16.1634 29.8841ZM14.1314 20.8188C14.0702 17.316 14.9798 14.5661 16.7776 12.4736L15.2607 11.1703C13.0793 13.7091 12.0639 16.9687 12.1317 20.8537L14.1314 20.8188ZM16.7813 12.4694C18.5235 10.4185 21.0443 9.31305 24.4935 9.25285L24.4586 7.25315C20.5655 7.32111 17.4484 8.59495 15.257 11.1745L16.7813 12.4694ZM24.4935 9.25285C26.3223 9.22093 27.9217 9.60136 29.3185 10.3704L30.2831 8.61837C28.5478 7.66298 26.5972 7.21582 24.4586 7.25315L24.4935 9.25285ZM29.2748 10.3449C29.6827 10.5972 30.1614 10.7962 30.6787 10.7871L30.6438 8.78743C30.655 8.78724 30.6364 8.78979 30.5802 8.77068C30.5234 8.75134 30.4394 8.71357 30.3268 8.64389L29.2748 10.3449ZM30.6787 10.7871C31.2115 10.7778 31.6473 10.5112 31.9254 10.107C32.168 9.7546 32.2722 9.33022 32.3208 8.94178L30.3363 8.69353C30.3218 8.80951 30.3034 8.88868 30.2878 8.93866C30.2717 8.98973 30.2635 8.99408 30.2779 8.97315C30.2947 8.94879 30.3385 8.89608 30.4187 8.85104C30.5015 8.80457 30.5837 8.78848 30.6438 8.78743L30.6787 10.7871ZM32.3028 9.04323C32.2949 9.07714 32.2565 9.21447 32.1134 9.3462C31.9549 9.49216 31.7718 9.53637 31.6491 9.53851L31.6142 7.53881C31.3318 7.54374 31.0184 7.63584 30.7588 7.8748C30.5147 8.09953 30.4046 8.37496 30.3543 8.59209L32.3028 9.04323ZM31.6491 9.53851C31.6441 9.5386 31.4582 9.54599 31.2518 9.39674C31.1388 9.31507 31.0449 9.20333 30.9836 9.07165C30.9249 8.94571 30.9103 8.83238 30.909 8.75656L32.9087 8.72165C32.9032 8.40929 32.7773 8.03173 32.4237 7.77603C32.1248 7.55996 31.8015 7.53554 31.6142 7.53881L31.6491 9.53851ZM30.909 8.75656C30.9142 9.05555 30.9107 9.47318 30.8976 10.0152L32.897 10.0636C32.9104 9.51036 32.9146 9.06111 32.9087 8.72165L30.909 8.75656ZM30.8974 10.0569L30.9315 12.0064L32.9312 11.9715L32.8971 10.022L30.8974 10.0569ZM30.9315 12.0064L30.9667 14.0244L32.9664 13.9895L32.9312 11.9715L30.9315 12.0064ZM30.9684 14.0678C30.9998 14.5821 31.0183 15.0228 31.0248 15.3919L33.0245 15.357C33.0174 14.9509 32.9972 14.4799 32.9647 13.9461L30.9684 14.0678ZM31.0248 15.3919C31.0244 15.3675 31.0236 15.1624 31.2014 14.9553C31.3986 14.7254 31.6435 14.6889 31.7389 14.6872L31.7738 16.6869C32.0517 16.6821 32.4325 16.5919 32.7191 16.2578C32.9863 15.9465 33.0285 15.5867 33.0245 15.357L31.0248 15.3919ZM31.7389 14.6872C31.8642 14.6851 32.0005 14.7132 32.1285 14.7807C32.2522 14.846 32.3337 14.9297 32.3821 14.9938C32.466 15.1051 32.469 15.1808 32.4568 15.1196L30.4956 15.5117C30.5333 15.7005 30.608 15.9631 30.7854 16.1982C30.9952 16.4763 31.3394 16.6945 31.7738 16.6869L31.7389 14.6872ZM32.4611 15.1425C32.0649 12.8893 31.3342 11.0855 30.1548 9.89245L28.7324 11.2984C29.5035 12.0785 30.1278 13.4215 30.4913 15.4888L32.4611 15.1425ZM30.1578 9.89549C28.7001 8.4081 26.7635 7.72612 24.4675 7.7662L24.5024 9.76589C26.3564 9.73353 27.7256 10.2712 28.7294 11.2954L30.1578 9.89549ZM24.4675 7.7662C23.049 7.79096 21.802 8.19801 20.8069 9.0523L22.1096 10.5698C22.6875 10.0738 23.4583 9.78412 24.5024 9.76589L24.4675 7.7662ZM20.7815 9.07477C19.749 10.0237 19.1096 11.5784 18.7237 13.5121C18.3318 15.4758 18.1716 17.987 18.2246 21.0211L20.2243 20.9862C20.1726 18.0234 20.3323 15.6707 20.685 13.9035C21.0437 12.1064 21.5735 11.0633 22.1349 10.5474L20.7815 9.07477ZM18.2246 21.0211C18.2939 24.9935 18.7321 28.0406 19.625 30.0438L21.4517 29.2296C20.7305 27.6115 20.2926 24.9032 20.2243 20.9862L18.2246 21.0211ZM19.6293 30.0534C20.1166 31.1162 20.8263 31.9584 21.7752 32.5197C22.7183 33.0776 23.8269 33.3165 25.05 33.2952L25.0151 31.2955C24.0719 31.3119 23.3485 31.1267 22.7935 30.7984C22.2443 30.4735 21.7901 29.9674 21.4474 29.22L19.6293 30.0534ZM25.05 33.2952C27.0692 33.2599 28.7804 32.7066 30.0626 31.5269C31.3396 30.352 32.0696 28.6676 32.3536 26.6078L30.3724 26.3346C30.1299 28.093 29.5417 29.2885 28.7085 30.055C27.8807 30.8167 26.6898 31.2663 25.0151 31.2955L25.05 33.2952ZM32.3507 26.6278C32.3763 26.4662 32.4029 26.3588 32.4243 26.2937C32.4346 26.2622 32.441 26.2489 32.441 26.249C32.4408 26.2495 32.438 26.255 32.4322 26.2644C32.4265 26.2737 32.4167 26.2883 32.4022 26.3064L30.8436 25.0531C30.5527 25.4149 30.4386 25.9152 30.3753 26.3146L32.3507 26.6278ZM32.3422 26.3744C32.2894 26.4291 32.2364 26.4549 32.2095 26.4644C32.1873 26.4722 32.1959 26.4646 32.2524 26.4636L32.2175 24.4639C31.7898 24.4714 31.2872 24.5878 30.9035 24.9851L32.3422 26.3744ZM32.2524 26.4636C32.3611 26.4617 32.2564 26.4903 32.1186 26.37C32.049 26.3092 32.0053 26.2383 31.9825 26.1796C31.962 26.1266 31.9644 26.0998 31.9647 26.1186L33.9644 26.0836C33.9575 25.6857 33.8346 25.2133 33.4344 24.8637C33.0534 24.5309 32.5877 24.4575 32.2175 24.4639L32.2524 26.4636ZM31.9647 26.1186C31.9696 26.3989 31.8879 26.8622 31.6429 27.5521L33.5275 28.2215C33.8042 27.4425 33.9754 26.7154 33.9644 26.0836L31.9647 26.1186ZM31.6423 27.5536C31.1755 28.8747 30.3521 29.8965 29.1442 30.6462L30.199 32.3455C31.7891 31.3585 32.9081 29.9743 33.528 28.22L31.6423 27.5536ZM29.1442 30.6462C27.9352 31.3967 26.3751 31.8192 24.409 31.8535L24.4439 33.8532C26.6734 33.8143 28.61 33.3318 30.199 32.3455L29.1442 30.6462ZM24.409 31.8535C21.0536 31.912 18.5973 30.9831 16.8862 29.1931L15.4405 30.5751C17.6326 32.8683 20.685 33.9188 24.4439 33.8532L24.409 31.8535ZM16.89 29.1971C15.1672 27.3751 14.198 24.6361 14.1314 20.8188L12.1317 20.8537C12.2035 24.9716 13.2556 28.2645 15.4368 30.5712L16.89 29.1971Z" fill="#181820"/>
<path d="M9.52868 25.2185C8.99853 10.9981 15.498 6.99805 22.9977 8.29799C13.9979 10.4989 12.4985 15.9981 13.6497 25.1619C13.2174 25.1935 9.75879 25.2016 9.52868 25.2185Z" fill="#191922"/>
</svg>
