<svg width="100" height="99" viewBox="0 0 100 99" fill="none" xmlns="http://www.w3.org/2000/svg">
<path d="M6.52028 67.417C6.05827 68.7995 3.59384 68.5877 4.17921 66.8316L26.1506 3.22987C26.3136 2.758 26.7579 2.44141 27.2571 2.44141H34.9308C35.4416 2.44141 35.8882 2.75633 36.0421 3.24336C43.1644 25.7856 55.2897 67.8682 58.5289 76.1975L43.3986 72.0999C41.8394 67.0315 31.0353 35.6466 25.1868 17.5893C24.837 16.5094 23.3053 16.5032 22.9499 17.5813L6.52028 67.417Z" fill="#181820" stroke="white" stroke-width="3" stroke-linecap="square"/>
<path d="M25.5 7.00195L12 46.002H36L25.5 7.00195Z" fill="white"/>
<rect y="67.002" width="12" height="6" fill="#181821"/>
<path d="M24 16.002L18 40.002H30L24 16.002Z" fill="#181821"/>
<path d="M39.4139 61.5107C39.2205 50.4289 42.1082 41.4146 48.0769 34.4677C53.9772 27.522 62.4341 23.953 73.4474 23.7608C79.3988 23.6569 84.7235 24.8983 89.4217 27.4849C90.3901 28.0839 91.2506 28.3768 92.003 28.3636C93.0975 28.3445 93.7649 27.3749 94.0051 25.4548C94.1323 24.9051 94.4354 24.6261 94.9142 24.6178C95.4615 24.6082 95.7387 24.8087 95.7458 25.2191C95.7626 26.1768 95.751 27.4771 95.7113 29.12L95.8134 34.9688L95.9191 41.0227C96.0149 42.5948 96.073 43.9624 96.0933 45.1253C96.104 45.7409 95.8358 46.0535 95.2885 46.0631C94.8781 46.0702 94.5979 45.6988 94.448 44.9487C93.3085 38.468 91.2759 33.7479 88.3503 30.7881C84.6579 27.0207 79.6993 25.1913 73.4743 25.2999C69.7804 25.3644 66.7536 26.4094 64.394 28.435C59.6124 32.8294 57.3786 44.0219 57.6927 62.0127C57.8992 73.847 59.2132 82.48 61.6345 87.9119C64.1243 93.3426 68.6184 96.0012 75.117 95.8878C86.1988 95.6944 92.5292 89.8702 94.1084 78.4154C94.2933 77.2489 94.5532 76.4574 94.8881 76.041C95.2913 75.6234 95.9034 75.4075 96.7243 75.3931C98.1608 75.3681 98.8904 76.0054 98.9131 77.3051C98.937 78.6732 98.5576 80.4589 97.7749 82.6623C96.1448 87.2753 93.2312 90.8844 89.0342 93.4894C84.8372 96.0945 79.592 97.4519 73.2987 97.5618C62.6273 97.748 54.3643 94.7789 48.5095 88.6542C42.6536 82.4612 39.6217 73.4133 39.4139 61.5107Z" fill="white"/>
<path d="M48.0769 34.4677L50.3523 36.4227L50.3578 36.4164L50.3633 36.41L48.0769 34.4677ZM89.4217 27.4849L90.9997 24.9335L90.9351 24.8935L90.8686 24.8569L89.4217 27.4849ZM94.0051 25.4548L91.0824 24.7781L91.0475 24.9288L91.0283 25.0824L94.0051 25.4548ZM95.7113 29.12L92.7122 29.0475L92.7107 29.1099L92.7117 29.1724L95.7113 29.12ZM95.9191 41.0227L92.9195 41.075L92.9206 41.1402L92.9246 41.2053L95.9191 41.0227ZM94.448 44.9487L91.4933 45.4682L91.4993 45.5026L91.5062 45.5368L94.448 44.9487ZM88.3503 30.7881L86.2077 32.888L86.2167 32.8971L88.3503 30.7881ZM64.394 28.435L62.44 26.1587L62.4014 26.1918L62.3641 26.2261L64.394 28.435ZM61.6345 87.9119L58.8944 89.1333L58.9009 89.1478L58.9075 89.1621L61.6345 87.9119ZM94.1084 78.4154L91.1454 77.9457L91.1406 77.9756L91.1365 78.0057L94.1084 78.4154ZM94.8881 76.041L92.73 73.9571L92.6355 74.055L92.5502 74.161L94.8881 76.041ZM97.7749 82.6623L94.948 81.6581L94.9463 81.6627L97.7749 82.6623ZM89.0342 93.4894L87.4521 90.9405L87.4521 90.9405L89.0342 93.4894ZM48.5095 88.6542L46.3297 90.7154L46.3353 90.7213L46.341 90.7272L48.5095 88.6542ZM42.4135 61.4583C42.2301 50.9497 44.9589 42.7 50.3523 36.4227L45.8014 32.5126C39.2574 40.1291 36.211 49.908 36.4144 61.563L42.4135 61.4583ZM50.3633 36.41C55.5899 30.2573 63.1523 26.941 73.4998 26.7603L73.3951 20.7613C61.7158 20.9651 52.3645 24.7867 45.7905 32.5254L50.3633 36.41ZM73.4998 26.7603C78.9864 26.6646 83.7844 27.8059 87.9748 30.113L90.8686 24.8569C85.6627 21.9907 79.8111 20.6493 73.3951 20.7613L73.4998 26.7603ZM87.8437 30.0364C89.0675 30.7933 90.5037 31.3903 92.0554 31.3632L91.9507 25.3641C91.9843 25.3635 91.9285 25.3712 91.7601 25.3139C91.5896 25.2558 91.3376 25.1425 90.9997 24.9335L87.8437 30.0364ZM92.0554 31.3632C93.6538 31.3353 94.9612 30.5354 95.7957 29.3229C96.5234 28.2656 96.8361 26.9925 96.9819 25.8271L91.0283 25.0824C90.9847 25.4303 90.9298 25.6678 90.8827 25.8178C90.8345 25.971 90.8099 25.9841 90.8532 25.9213C90.9035 25.8482 91.0349 25.69 91.2756 25.5549C91.524 25.4155 91.7705 25.3672 91.9507 25.3641L92.0554 31.3632ZM96.9277 26.1315C96.9042 26.2332 96.789 26.6452 96.3597 27.0404C95.8841 27.4783 95.3349 27.6109 94.9666 27.6173L94.8619 21.6182C94.0147 21.633 93.0746 21.9093 92.2959 22.6262C91.5636 23.3004 91.2332 24.1267 91.0824 24.7781L96.9277 26.1315ZM94.9666 27.6173C94.9518 27.6176 94.394 27.6398 93.7747 27.192C93.4359 26.947 93.154 26.6118 92.9701 26.2167C92.7942 25.8389 92.7503 25.4989 92.7463 25.2715L98.7454 25.1668C98.729 24.2297 98.3513 23.097 97.2904 22.3299C96.3939 21.6817 95.4239 21.6084 94.8619 21.6182L94.9666 27.6173ZM92.7463 25.2715C92.762 26.1685 92.7515 27.4213 92.7122 29.0475L98.7104 29.1926C98.7506 27.5329 98.7632 26.1851 98.7454 25.1668L92.7463 25.2715ZM92.7117 29.1724L92.8138 35.0211L98.8129 34.9164L98.7108 29.0677L92.7117 29.1724ZM92.8138 35.0211L92.9195 41.075L98.9186 40.9703L98.8129 34.9164L92.8138 35.0211ZM92.9246 41.2053C93.0187 42.7481 93.0744 44.0703 93.0938 45.1776L99.0928 45.0729C99.0716 43.8545 99.0111 42.4416 98.9135 40.8401L92.9246 41.2053ZM93.0938 45.1776C93.0925 45.1044 93.0904 44.4891 93.6235 43.8678C94.2153 43.1781 94.9499 43.0685 95.2362 43.0635L95.3409 49.0626C96.1744 49.0481 97.3168 48.7774 98.1768 47.7751C98.9782 46.8412 99.1049 45.7618 99.0928 45.0729L93.0938 45.1776ZM95.2362 43.0635C95.6121 43.057 96.0208 43.1414 96.4048 43.344C96.7762 43.5399 97.0204 43.7908 97.1656 43.9833C97.4175 44.3172 97.4265 44.5441 97.3898 44.3606L91.5062 45.5368C91.6194 46.1033 91.8435 46.8911 92.3755 47.5964C93.0049 48.4308 94.0376 49.0854 95.3409 49.0626L95.2362 43.0635ZM97.4026 44.4292C96.2141 37.6696 94.0219 32.2584 90.4839 28.6791L86.2167 32.8971C88.5299 35.2373 90.4028 39.2664 91.4933 45.4682L97.4026 44.4292ZM90.4929 28.6883C86.1196 24.2261 80.3098 22.1802 73.4219 22.3004L73.5267 28.2995C79.0887 28.2024 83.1962 29.8153 86.2077 32.888L90.4929 28.6883ZM73.4219 22.3004C69.1665 22.3747 65.4255 23.5958 62.44 26.1587L66.3481 30.7113C68.0818 29.2231 70.3943 28.3542 73.5267 28.2995L73.4219 22.3004ZM62.3641 26.2261C59.2665 29.0728 57.3483 33.7369 56.1905 39.538C55.0148 45.4292 54.5343 52.9628 54.6931 62.0651L60.6922 61.9604C60.5371 53.0719 61.0164 46.0138 62.0745 40.7124C63.1505 35.3209 64.74 32.1916 66.424 30.6439L62.3641 26.2261ZM54.6931 62.0651C54.9012 73.9824 56.2156 83.1237 58.8944 89.1333L64.3746 86.6905C62.2108 81.8363 60.8973 73.7115 60.6922 61.9604L54.6931 62.0651ZM58.9075 89.1621C60.3692 92.3505 62.4983 94.8769 65.345 96.5609C68.1742 98.2346 71.5001 98.9514 75.1693 98.8873L75.0646 92.8883C72.2352 92.9376 70.0648 92.3818 68.3999 91.3969C66.7524 90.4223 65.3896 88.9041 64.3616 86.6617L58.9075 89.1621ZM75.1693 98.8873C81.2269 98.7816 86.3605 97.1216 90.2074 93.5824C94.0383 90.0579 96.2283 85.0047 97.0803 78.8251L91.1365 78.0057C90.4093 83.2808 88.6445 86.8672 86.145 89.1668C83.6614 91.4518 80.0888 92.8006 75.0646 92.8883L75.1693 98.8873ZM97.0714 78.8851C97.1482 78.4004 97.2281 78.0782 97.2922 77.8829C97.3233 77.7884 97.3425 77.7486 97.3424 77.7489C97.3417 77.7503 97.3335 77.7669 97.3161 77.7949C97.2988 77.8229 97.2695 77.8668 97.2259 77.9211L92.5502 74.161C91.6774 75.2464 91.3353 76.7473 91.1454 77.9457L97.0714 78.8851ZM97.0461 78.125C96.8877 78.289 96.7285 78.3664 96.6478 78.3949C96.5815 78.4183 96.6072 78.3956 96.7766 78.3927L96.6719 72.3936C95.3887 72.416 93.8809 72.7653 92.73 73.9571L97.0461 78.125ZM96.7766 78.3927C97.1026 78.387 96.7885 78.4727 96.3753 78.1117C96.1664 77.9293 96.0354 77.7167 95.967 77.5406C95.9053 77.3817 95.9126 77.3011 95.9135 77.3575L101.913 77.2527C101.892 76.0588 101.523 74.6418 100.322 73.5929C99.1796 72.5946 97.7825 72.3742 96.6719 72.3936L96.7766 78.3927ZM95.9135 77.3575C95.9282 78.1984 95.6832 79.5884 94.948 81.6581L100.602 83.6664C101.432 81.3294 101.946 79.148 101.913 77.2527L95.9135 77.3575ZM94.9463 81.6627C93.5458 85.6259 91.0756 88.6914 87.4521 90.9405L90.6163 96.0383C95.3868 93.0773 98.7437 88.9247 100.603 83.6618L94.9463 81.6627ZM87.4521 90.9405C83.8251 93.1918 79.1446 94.4593 73.2463 94.5622L73.351 100.561C80.0395 100.445 85.8493 98.9972 90.6163 96.0383L87.4521 90.9405ZM73.2463 94.5622C63.1802 94.7379 55.8114 91.9511 50.6781 86.5812L46.341 90.7272C52.9172 97.6066 62.0745 100.758 73.351 100.561L73.2463 94.5622ZM50.6893 86.593C45.5209 81.1271 42.6134 72.9101 42.4135 61.4583L36.4144 61.563C36.63 73.9165 39.7862 83.7952 46.3297 90.7154L50.6893 86.593Z" fill="#181820"/>
<path d="M28.588 73.6574C26.9975 30.9962 46.4961 18.9961 68.9949 22.8959C41.9958 29.4986 37.4975 45.9962 40.9509 73.4875C39.6542 73.5824 29.2783 73.6069 28.588 73.6574Z" fill="#191922"/>
</svg>
